<svg xmlns="http://www.w3.org/2000/svg" viewBox="0 0 512 512"><!--!Font Awesome Free 6.5.2 by @fontawesome - https://fontawesome.com License - https://fontawesome.com/license/free Copyright 2024 Fonticons, Inc.--><path d="M496 256c0 137-111 248-248 248S0 393 0 256 111 8 248 8s248 111 248 248zM227.3 381.3c-2.6-9.5-2.6-19.1 0-28.7c2.6-9.5 7.9-18.1 15.8-25.6c7.9-7.5 17.1-13.4 27.6-17.7c10.5-4.3 21.8-6.4 33.8-6.4c12 0 23.3 2.1 33.8 6.4c10.5 4.3 19.7 10.2 27.6 17.7c7.9 7.5 13.2 16.1 15.8 25.6c2.6 9.5 2.6 19.1 0 28.7c-2.6 9.5-7.9 18.1-15.8 25.6c-7.9 7.5-17.1 13.4-27.6-17.7c-10.5-4.3-21.8-6.4-33.8-6.4c-12 0-23.3-2.1-33.8-6.4c-10.5-4.3-19.7-10.2-27.6-17.7c-7.9-7.5-13.2-16.1-15.8-25.6zM384 256c0 17.7-14.3 32-32 32s-32-14.3-32-32s14.3-32 32-32s32 14.3 32 32zM160 256c0 17.7-14.3 32-32 32s-32-14.3-32-32s14.3-32 32-32s32 14.3 32 32z" fill="#FFFFFF"/></svg>